<svg width="218" height="218" viewBox="0 0 218 218" fill="none" xmlns="http://www.w3.org/2000/svg">
<g clip-path="url(#clip0)">
<rect y="108.943" width="154" height="154" rx="20" transform="rotate(-45.0258 0 108.943)" fill="#3792C1"/>
<path d="M110 -2.3325L220.828 110.663L108.088 221.101L-2.7393 108.106L110 -2.3325Z" stroke="black"/>
<path d="M142.187 76.5202C160.412 94.8756 160.35 124.45 142.045 142.612C123.751 160.765 94.146 160.625 75.9224 142.27C57.6873 123.904 57.7595 94.2981 76.0536 76.1462C94.3573 57.9847 123.951 58.1533 142.187 76.5202Z" fill="#3792C1" stroke="white" stroke-width="4"/>
<path d="M83.211 117.076C82.7562 117.416 82.3468 117.729 81.9676 118.028C81.6184 118.327 81.1499 118.579 80.531 118.87C79.9271 119.161 79.3695 119.366 78.7835 119.466C78.2268 119.611 77.4467 119.66 76.4281 119.629C74.5557 119.57 73.0077 118.871 71.7981 117.605C70.574 116.31 69.9683 114.753 69.9974 112.847C70.0215 111.265 70.3552 110.019 70.9988 109.092C71.6576 108.152 72.5681 107.412 73.745 106.886C74.952 106.362 76.3961 106.008 78.0472 105.838C79.7281 105.684 81.5138 105.533 83.4477 105.49L83.4497 105.357C83.4671 104.219 83.0301 103.392 82.1828 102.937C81.3208 102.466 80.0359 102.204 78.2983 102.15C77.5044 102.125 76.6034 102.244 75.5503 102.507C74.5129 102.726 73.4884 103.078 72.4633 103.475L71.924 103.458L72.0014 98.3885C72.6636 98.2022 73.7153 98.0282 75.1874 97.8081C76.6594 97.5881 78.1294 97.501 79.6424 97.5484C83.2974 97.6629 85.9393 98.3668 87.5989 99.6017C89.2731 100.867 90.0838 102.741 90.0463 105.194L89.8283 119.487L83.1774 119.278L83.211 117.076ZM83.2611 113.795L83.3276 109.434C82.2023 109.517 81.302 109.593 80.6266 109.66C79.9514 109.713 79.2603 109.825 78.5973 110.055C78.0102 110.229 77.5563 110.51 77.2504 110.915C76.9145 111.318 76.7267 111.845 76.7168 112.495C76.7019 113.471 76.9761 114.16 77.4948 114.546C78.0134 114.932 78.8048 115.119 79.8684 115.152C80.4077 115.169 81.0082 115.099 81.5969 114.822C82.2296 114.605 82.7748 114.238 83.2611 113.795Z" fill="white"/>
<path d="M104.362 120.504C102.61 120.449 100.981 120.161 99.5341 119.687C98.1028 119.198 96.8547 118.494 95.7899 117.558C94.7256 116.594 93.9191 115.43 93.3406 114.051C92.7624 112.658 92.5028 111.008 92.531 109.161C92.5619 107.136 92.887 105.475 93.5679 104.062C94.2335 102.678 95.1049 101.552 96.2421 100.685C97.319 99.8467 98.5722 99.2353 100.031 98.867C101.461 98.483 102.962 98.323 104.52 98.3718C105.688 98.4084 106.885 98.5939 108.034 98.9107C109.213 99.199 110.375 99.6642 111.549 100.293L111.464 105.894L110.61 105.868C110.374 105.609 110.034 105.317 109.664 105.039C109.264 104.702 108.879 104.423 108.418 104.172C107.943 103.862 107.377 103.666 106.811 103.442C106.184 103.244 105.512 103.12 104.763 103.097C103.07 103.044 101.743 103.579 100.796 104.732C99.8649 105.856 99.3467 107.407 99.3167 109.373C99.2849 111.457 99.7701 113.055 100.743 114.12C101.716 115.171 103.011 115.729 104.674 115.781C105.513 115.808 106.264 115.728 106.91 115.585C107.527 115.412 108.07 115.193 108.508 114.955C108.977 114.704 109.37 114.465 109.689 114.179C110.008 113.923 110.296 113.68 110.494 113.465L111.348 113.492L111.263 119.079C110.886 119.23 110.449 119.408 109.936 119.613C109.439 119.79 108.957 119.953 108.415 120.069C107.783 120.256 107.153 120.325 106.597 120.411C106.026 120.497 105.291 120.533 104.362 120.504" fill="white"/>
<path d="M140.198 121.064L140.358 110.57C140.374 109.55 140.372 108.693 140.338 107.967C140.304 107.256 140.193 106.661 140.005 106.212C139.832 105.748 139.523 105.428 139.136 105.209C138.75 104.975 138.182 104.868 137.478 104.846C136.969 104.83 136.473 104.903 135.961 105.109C135.463 105.315 134.919 105.624 134.329 105.99L134.102 120.873L127.466 120.665L127.626 110.171C127.642 109.152 127.64 108.294 127.606 107.568C127.557 106.857 127.476 106.263 127.288 105.813C127.085 105.349 126.805 105.029 126.419 104.81C126.003 104.575 125.45 104.47 124.746 104.448C124.192 104.43 123.666 104.532 123.138 104.752C122.61 105.001 122.096 105.281 121.612 105.591L121.385 120.475L114.749 120.267L115.069 99.294L121.704 99.5019L121.669 101.822C122.761 100.955 123.806 100.263 124.772 99.7755C125.724 99.3025 126.806 99.0703 128.02 99.1083C129.308 99.1486 130.457 99.495 131.406 100.131C132.415 100.769 133.135 101.694 133.641 102.937C134.932 101.809 136.159 100.945 137.277 100.345C138.425 99.7448 139.569 99.4701 140.722 99.5062C141.711 99.5372 142.592 99.7423 143.381 100.063C144.155 100.412 144.822 100.906 145.337 101.529C145.941 102.228 146.363 103.04 146.633 103.98C146.934 104.921 147.05 106.122 147.027 107.63L146.819 121.271L140.198 121.064Z" fill="white"/>
</g>
<defs>
<clipPath id="clip0">
<rect y="108.943" width="154" height="154" rx="20" transform="rotate(-45.0258 0 108.943)" fill="white"/>
</clipPath>
</defs>
</svg>
